<?xml version="1.0" encoding="utf-8"?>
<!-- Generator: Adobe Illustrator 23.0.6, SVG Export Plug-In . SVG Version: 6.00 Build 0)  -->
<svg version="1.1" id="Capa_1" xmlns="http://www.w3.org/2000/svg" xmlns:xlink="http://www.w3.org/1999/xlink" x="0px" y="0px"
	 viewBox="0 0 459 411.2" style="enable-background:new 0 0 459 411.2;" xml:space="preserve">
<style type="text/css">
	.st0{fill:#4D9EBF;}
	.st1{font-family:'ArialMT';}
	.st2{font-size:61.4649px;}
</style>
<title>CitegraLogoVector</title>
<path class="st0" d="M458,304c-25.9,44.5-61.4,75-107.8,93c-33.4,13-68.1,16.4-103.5,11.8c-4.9-0.6-9.4,0.3-14.1,0.9
	c-115.6,14-221.4-71.2-231.7-186.5C-6.8,137.9,39.7,57.9,117.3,20.7c31.2-14.9,63.7-22.6,98-20.3c32,2.2,64.1-3.7,96.1,2.5
	c43.2,8.4,80.8,26.3,111.5,58.6c12.7,13.4,24.8,26.7,34.6,45.1c-24,0-46.3,0.1-68.6-0.1c-6,0-7-5.8-9.5-9.5
	c-31.2-46.5-74.1-76-129.5-87.6c-10.4-2.2-20,0.2-29.4,2.8c-90.3,24.5-152,108.1-148.6,201c3.2,90.9,71,169.9,161.8,188.6
	c5.5,1.2,11.2,1.1,16.8-0.1c54.8-12.7,98.5-41.4,129.1-88.5c4.5-7,8.8-9.9,17.5-9.4C416.7,304.6,436.5,304,458,304z"/>
<text transform="matrix(0.6781 0 0 1 123.4702 229.1584)" class="st1 st2">C  I  T  E  G  R  A</text>
<text transform="matrix(1 0 0 1 566.7646 117.1177)" style="font-family:'MyriadPro-Regular'; font-size:12px;">Lorem ipsum</text>
</svg>
