<svg id="Capa_1" data-name="Capa 1" xmlns="http://www.w3.org/2000/svg" viewBox="0 0 459.03 411.17"><defs><style>.cls-1{fill:#4d9ebf;}.cls-2{font-size:52px;fill:#fff;font-family:SansSerif;letter-spacing:0em;}</style></defs><title>CitegraBlanco</title><path class="cls-1" d="M458,304c-25.85,44.5-61.39,75-107.81,93-33.43,13-68.06,16.39-103.53,11.77-4.92-.64-9.44.31-14.14.88C116.94,423.65,11.1,338.49.81,223.2-6.81,137.92,39.67,57.9,117.28,20.74,148.47,5.8,181-1.89,215.28.44c32,2.18,64.15-3.71,96.06,2.47,43.24,8.36,80.84,26.28,111.52,58.58,12.73,13.4,24.77,26.75,34.63,45.05-24,0-46.32.1-68.6-.06-6,0-7-5.83-9.5-9.55-31.23-46.51-74.06-76-129.52-87.6-10.36-2.16-20,.24-29.42,2.81-90.32,24.51-152,108.08-148.65,201C75,304.07,142.8,383,233.62,401.71a38.68,38.68,0,0,0,16.76-.12c54.82-12.67,98.53-41.38,129.07-88.52,4.51-7,8.77-9.85,17.52-9.42C416.69,304.65,436.51,304,458,304Z" transform="translate(0 0.01)"/><text class="cls-2" transform="translate(135.86 223.3)">C I T E G R A</text></svg>